<?xml version="1.0" encoding="UTF-8"?>
<svg id="Capa_1" xmlns="http://www.w3.org/2000/svg" version="1.1" viewBox="0 0 841.89 595.28">
  <!-- Generator: Adobe Illustrator 29.5.1, SVG Export Plug-In . SVG Version: 2.1.0 Build 141)  -->
  <defs>
    <style>
      .st0 {
        fill: #ffffff;
      }

      .st1 {
        fill: #ffffff;
      }

      .st2 {
        fill: #ffffff;
      }
    </style>
  </defs>
  <g>
    <path class="st0" d="M223.73,242.72h23.36l63.1,144.44h-26.64l-14.54-34.63h-67.81l-14.75,34.63h-25.81l63.1-144.44ZM259.79,330.2l-24.79-57.36-24.58,57.36h49.38Z"/>
    <path class="st0" d="M357.93,242.72h23.36l63.1,144.44h-26.64l-14.54-34.63h-67.81l-14.75,34.63h-25.81l63.1-144.44ZM394,330.2l-24.79-57.36-24.58,57.36h49.38Z"/>
    <path class="st2" d="M444.2,243.74h106.34v22.54h-81.13v37.29h71.91v22.54h-71.91v38.51h82.16v22.54h-107.36v-143.41Z"/>
    <path class="st2" d="M556.68,243.74h53.47c45.07,0,76.22,30.93,76.22,71.3v.41c0,40.36-31.14,71.71-76.22,71.71h-53.47v-143.41ZM610.16,364.21c30.12,0,49.78-20.28,49.78-48.35v-.41c0-28.07-19.67-48.76-49.78-48.76h-28.27v97.52h28.27Z"/>
    <path class="st1" d="M693.55,243.74h25.2v143.41h-25.2v-143.41Z"/>
  </g>
  <rect class="st1" x="162.38" y="215.94" width="13.72" height="13.72"/>
  <rect class="st1" x="295.67" y="215.94" width="13.72" height="13.72"/>
  <rect class="st1" x="162.75" y="198.79" width="146.64" height="13.72"/>
  <polygon class="st1" points="122.79 233.93 169.23 340.24 215.68 233.93 122.79 233.93"/>
  <polygon class="st1" points="256.17 233.93 302.61 340.24 349.06 233.93 256.17 233.93"/>
  <polygon class="st1" points="308.89 194.13 236.32 135.54 163.75 194.13 308.89 194.13"/>
  <g>
    <path class="st0" d="M168.84,425.26h-4.01l-.69-4.41h-4.87l-.68,4.41h-3.65l4.05-24.29h5.81l4.05,24.29ZM159.78,417.56h3.83l-1.92-12.28-1.91,12.28Z"/>
    <path class="st0" d="M183.27,400.7c3.87,0,5.85,2.22,5.85,6.11v.76h-3.75v-1c0-1.74-.72-2.39-1.98-2.39s-1.99.66-1.99,2.39c0,4.99,7.76,5.93,7.76,12.87,0,3.88-2.02,6.1-5.92,6.1s-5.92-2.22-5.92-6.1v-1.49h3.76v1.74c0,1.73.79,2.36,2.06,2.36s2.06-.63,2.06-2.36c0-5-7.76-5.93-7.76-12.87,0-3.89,1.98-6.11,5.84-6.11Z"/>
    <path class="st0" d="M198.35,406.8c0-3.89,2.13-6.11,6.02-6.11s6.03,2.22,6.03,6.11v12.63c0,3.88-2.13,6.1-6.03,6.1s-6.02-2.22-6.02-6.1v-12.63ZM202.31,419.67c0,1.73.79,2.39,2.06,2.39s2.06-.66,2.06-2.39v-13.11c0-1.74-.79-2.39-2.06-2.39s-2.06.66-2.06,2.39v13.11Z"/>
    <path class="st0" d="M231.73,416.2v3.23c0,3.88-2.02,6.1-5.92,6.1s-5.92-2.22-5.92-6.1v-12.63c0-3.89,2.02-6.11,5.92-6.11s5.92,2.22,5.92,6.11v2.36h-3.75v-2.6c0-1.74-.79-2.39-2.06-2.39s-2.06.66-2.06,2.39v13.11c0,1.73.79,2.36,2.06,2.36s2.06-.63,2.06-2.36v-3.47h3.75Z"/>
    <path class="st0" d="M241.38,400.97h3.97v24.29h-3.97v-24.29Z"/>
    <path class="st0" d="M268.33,425.26h-4.01l-.69-4.41h-4.87l-.68,4.41h-3.65l4.05-24.29h5.81l4.05,24.29ZM259.27,417.56h3.83l-1.92-12.28-1.91,12.28Z"/>
    <path class="st0" d="M288.93,416.2v3.23c0,3.88-2.02,6.1-5.92,6.1s-5.92-2.22-5.92-6.1v-12.63c0-3.89,2.02-6.11,5.92-6.11s5.92,2.22,5.92,6.11v2.36h-3.75v-2.6c0-1.74-.79-2.39-2.06-2.39s-2.06.66-2.06,2.39v13.11c0,1.73.79,2.36,2.06,2.36s2.06-.63,2.06-2.36v-3.47h3.75Z"/>
    <path class="st0" d="M298.59,400.97h3.97v24.29h-3.97v-24.29Z"/>
    <path class="st0" d="M312.36,406.8c0-3.89,2.13-6.11,6.02-6.11s6.03,2.22,6.03,6.11v12.63c0,3.88-2.13,6.1-6.03,6.1s-6.02-2.22-6.02-6.1v-12.63ZM322.64,395.84l-3.68,3.85h-2.67l2.45-3.85h3.9ZM316.33,419.67c0,1.73.79,2.39,2.06,2.39s2.06-.66,2.06-2.39v-13.11c0-1.74-.79-2.39-2.06-2.39s-2.06.66-2.06,2.39v13.11Z"/>
    <path class="st0" d="M337.76,407.67v17.59h-3.57v-24.29h4.98l4.08,14.54v-14.54h3.54v24.29h-4.08l-4.95-17.59Z"/>
    <path class="st0" d="M382.56,425.26h-4.01l-.69-4.41h-4.87l-.69,4.41h-3.65l4.05-24.29h5.81l4.05,24.29ZM373.5,417.56h3.83l-1.92-12.28-1.91,12.28Z"/>
    <path class="st0" d="M403.52,406.56v.86c0,2.5-.79,4.1-2.56,4.89,2.13.8,2.96,2.64,2.96,5.21v1.98c0,3.75-2.06,5.76-6.02,5.76h-6.25v-24.29h6c4.11,0,5.88,1.84,5.88,5.59ZM395.62,404.44v6.42h1.55c1.48,0,2.38-.63,2.38-2.57v-1.35c0-1.74-.61-2.5-2.02-2.5h-1.91ZM395.62,414.33v7.45h2.28c1.34,0,2.06-.59,2.06-2.39v-2.11c0-2.25-.76-2.95-2.56-2.95h-1.77Z"/>
    <path class="st0" d="M413.22,406.8c0-3.89,2.13-6.11,6.02-6.11s6.03,2.22,6.03,6.11v12.63c0,3.88-2.13,6.1-6.03,6.1s-6.02-2.22-6.02-6.1v-12.63ZM417.19,419.67c0,1.73.79,2.39,2.06,2.39s2.06-.66,2.06-2.39v-13.11c0-1.74-.79-2.39-2.06-2.39s-2.06.66-2.06,2.39v13.11Z"/>
    <path class="st0" d="M441.04,411.73h5.56v7.7c0,3.88-2.02,6.1-5.92,6.1s-5.92-2.22-5.92-6.1v-12.63c0-3.89,2.02-6.11,5.92-6.11s5.92,2.22,5.92,6.11v2.36h-3.75v-2.6c0-1.74-.79-2.39-2.06-2.39s-2.06.66-2.06,2.39v13.11c0,1.73.79,2.36,2.06,2.36s2.06-.63,2.06-2.36v-4.48h-1.81v-3.47Z"/>
    <path class="st0" d="M469.22,425.26h-4.01l-.69-4.41h-4.87l-.68,4.41h-3.65l4.05-24.29h5.81l4.05,24.29ZM460.16,417.56h3.83l-1.92-12.28-1.91,12.28Z"/>
    <path class="st0" d="M478.3,400.97h6.28c3.97,0,5.92,2.12,5.92,6v12.28c0,3.88-1.95,6-5.92,6h-6.28v-24.29ZM482.27,404.44v17.34h2.24c1.26,0,2.02-.63,2.02-2.36v-12.63c0-1.74-.76-2.36-2.02-2.36h-2.24Z"/>
    <path class="st0" d="M499.95,406.8c0-3.89,2.13-6.11,6.02-6.11s6.03,2.22,6.03,6.11v12.63c0,3.88-2.13,6.1-6.03,6.1s-6.02-2.22-6.02-6.1v-12.63ZM503.91,419.67c0,1.73.79,2.39,2.06,2.39s2.06-.66,2.06-2.39v-13.11c0-1.74-.79-2.39-2.06-2.39s-2.06.66-2.06,2.39v13.11Z"/>
    <path class="st0" d="M527.15,400.7c3.87,0,5.85,2.22,5.85,6.11v.76h-3.75v-1c0-1.74-.72-2.39-1.98-2.39s-1.99.66-1.99,2.39c0,4.99,7.76,5.93,7.76,12.87,0,3.88-2.02,6.1-5.92,6.1s-5.92-2.22-5.92-6.1v-1.49h3.76v1.74c0,1.73.79,2.36,2.06,2.36s2.06-.63,2.06-2.36c0-5-7.76-5.93-7.76-12.87,0-3.89,1.98-6.11,5.84-6.11Z"/>
    <path class="st0" d="M559.35,411.21h5.45v3.47h-5.45v7.11h6.86v3.47h-10.83v-24.29h10.83v3.47h-6.86v6.76Z"/>
    <path class="st0" d="M589.16,400.97l-4.15,11.8,4.44,12.49h-4.19l-3.25-9.61-3.29,9.61h-3.72l4.44-12.49-4.15-11.8h4.12l2.99,8.95,3.07-8.95h3.68Z"/>
    <path class="st0" d="M610.44,406.97v3.16c0,3.88-1.95,6-5.92,6h-1.88v9.12h-3.97v-24.29h5.85c3.97,0,5.92,2.12,5.92,6ZM602.65,404.44v8.22h1.88c1.26,0,1.95-.55,1.95-2.29v-3.65c0-1.73-.69-2.29-1.95-2.29h-1.88Z"/>
    <path class="st0" d="M623.68,411.21h5.45v3.47h-5.45v7.11h6.86v3.47h-10.83v-24.29h10.83v3.47h-6.86v6.76Z"/>
    <path class="st0" d="M648.54,425.26c-.22-.63-.36-1.01-.36-2.99v-3.81c0-2.25-.79-3.09-2.6-3.09h-1.37v9.89h-3.97v-24.29h6c4.11,0,5.88,1.84,5.88,5.59v1.9c0,2.5-.83,4.13-2.6,4.92,1.98.8,2.63,2.64,2.63,5.17v3.74c0,1.18.04,2.05.43,2.95h-4.04ZM644.21,404.44v7.46h1.55c1.48,0,2.38-.63,2.38-2.57v-2.39c0-1.74-.61-2.5-2.02-2.5h-1.91Z"/>
    <path class="st0" d="M660.83,400.97h12.27v3.47h-4.15v20.81h-3.97v-20.81h-4.15v-3.47Z"/>
    <path class="st0" d="M681.76,406.8c0-3.89,2.13-6.11,6.02-6.11s6.03,2.22,6.03,6.11v12.63c0,3.88-2.13,6.1-6.03,6.1s-6.02-2.22-6.02-6.1v-12.63ZM685.72,419.67c0,1.73.79,2.39,2.06,2.39s2.06-.66,2.06-2.39v-13.11c0-1.74-.79-2.39-2.06-2.39s-2.06.66-2.06,2.39v13.11Z"/>
    <path class="st0" d="M708.96,400.7c3.87,0,5.85,2.22,5.85,6.11v.76h-3.75v-1c0-1.74-.72-2.39-1.98-2.39s-1.99.66-1.99,2.39c0,4.99,7.76,5.93,7.76,12.87,0,3.88-2.02,6.1-5.92,6.1s-5.92-2.22-5.92-6.1v-1.49h3.76v1.74c0,1.73.79,2.36,2.06,2.36s2.06-.63,2.06-2.36c0-5-7.76-5.93-7.76-12.87,0-3.89,1.98-6.11,5.84-6.11Z"/>
    <path class="st2" d="M224.09,445.82h5.45v3.47h-5.45v7.11h6.86v3.47h-10.83v-24.29h10.83v3.47h-6.86v6.76Z"/>
    <path class="st2" d="M244.19,442.29v17.59h-3.57v-24.29h4.98l4.08,14.54v-14.54h3.54v24.29h-4.08l-4.95-17.59Z"/>
    <path class="st2" d="M276.13,435.59h6.28c3.97,0,5.92,2.12,5.92,6v12.28c0,3.88-1.95,6-5.92,6h-6.28v-24.29ZM280.11,439.06v17.34h2.24c1.26,0,2.02-.63,2.02-2.36v-12.63c0-1.74-.76-2.36-2.02-2.36h-2.24Z"/>
    <path class="st2" d="M302.08,445.82h5.45v3.47h-5.45v7.11h6.86v3.47h-10.83v-24.29h10.83v3.47h-6.86v6.76Z"/>
    <path class="st2" d="M326.94,459.88c-.22-.63-.36-1.01-.36-2.99v-3.81c0-2.25-.79-3.09-2.6-3.09h-1.37v9.89h-3.97v-24.29h6c4.11,0,5.88,1.84,5.88,5.59v1.9c0,2.5-.83,4.13-2.6,4.92,1.98.8,2.63,2.64,2.63,5.17v3.74c0,1.18.04,2.05.43,2.95h-4.04ZM322.6,439.06v7.46h1.55c1.48,0,2.38-.63,2.38-2.57v-2.39c0-1.74-.61-2.5-2.02-2.5h-1.91Z"/>
    <path class="st2" d="M344.36,445.82h5.45v3.47h-5.45v7.11h6.86v3.47h-10.83v-24.29h10.83v3.47h-6.86v6.76Z"/>
    <path class="st2" d="M372.43,450.82v3.23c0,3.88-2.02,6.1-5.92,6.1s-5.92-2.22-5.92-6.1v-12.63c0-3.89,2.02-6.11,5.92-6.11s5.92,2.22,5.92,6.11v2.36h-3.75v-2.6c0-1.74-.79-2.39-2.06-2.39s-2.06.66-2.06,2.39v13.11c0,1.73.79,2.36,2.06,2.36s2.06-.63,2.06-2.36v-3.47h3.75Z"/>
    <path class="st2" d="M386.06,459.88h-3.97v-24.29h3.97v10.41h4.51v-10.41h4.04v24.29h-4.04v-10.41h-4.51v10.41Z"/>
    <path class="st2" d="M404.43,441.42c0-3.89,2.13-6.11,6.02-6.11s6.03,2.22,6.03,6.11v12.63c0,3.88-2.13,6.1-6.03,6.1s-6.02-2.22-6.02-6.1v-12.63ZM408.39,454.29c0,1.73.79,2.39,2.06,2.39s2.06-.66,2.06-2.39v-13.11c0-1.74-.79-2.39-2.06-2.39s-2.06.66-2.06,2.39v13.11Z"/>
    <path class="st2" d="M439.11,435.59h3.97v24.29h-3.97v-24.29Z"/>
    <path class="st2" d="M456.74,442.29v17.59h-3.57v-24.29h4.98l4.08,14.54v-14.54h3.54v24.29h-4.08l-4.95-17.59Z"/>
    <path class="st2" d="M484.27,452.83l2.7-17.24h5.53v24.29h-3.76v-17.42l-2.74,17.42h-3.75l-2.96-17.17v17.17h-3.46v-24.29h5.52l2.92,17.24Z"/>
    <path class="st2" d="M502.32,441.42c0-3.89,2.13-6.11,6.02-6.11s6.03,2.22,6.03,6.11v12.63c0,3.88-2.13,6.1-6.03,6.1s-6.02-2.22-6.02-6.1v-12.63ZM506.29,454.29c0,1.73.79,2.39,2.06,2.39s2.06-.66,2.06-2.39v-13.11c0-1.74-.79-2.39-2.06-2.39s-2.06.66-2.06,2.39v13.11Z"/>
    <path class="st2" d="M536.06,441.18v.86c0,2.5-.79,4.1-2.56,4.89,2.13.8,2.96,2.64,2.96,5.21v1.98c0,3.75-2.06,5.76-6.02,5.76h-6.25v-24.29h6c4.11,0,5.88,1.84,5.88,5.59ZM528.15,439.06v6.42h1.55c1.48,0,2.38-.63,2.38-2.57v-1.35c0-1.74-.61-2.5-2.02-2.5h-1.91ZM528.15,448.95v7.45h2.28c1.34,0,2.06-.59,2.06-2.39v-2.11c0-2.25-.76-2.95-2.56-2.95h-1.77Z"/>
    <path class="st2" d="M546.08,435.59h3.97v24.29h-3.97v-24.29Z"/>
    <path class="st2" d="M560.17,435.59h3.97v20.81h6.53v3.47h-10.5v-24.29Z"/>
    <path class="st2" d="M579.65,435.59h3.97v24.29h-3.97v-24.29Z"/>
    <path class="st2" d="M606.6,459.88h-4.01l-.69-4.41h-4.87l-.69,4.41h-3.65l4.05-24.29h5.81l4.05,24.29ZM597.54,452.18h3.83l-1.92-12.28-1.91,12.28Z"/>
    <path class="st2" d="M623.98,459.88c-.22-.63-.36-1.01-.36-2.99v-3.81c0-2.25-.79-3.09-2.6-3.09h-1.37v9.89h-3.97v-24.29h6c4.11,0,5.88,1.84,5.88,5.59v1.9c0,2.5-.83,4.13-2.6,4.92,1.98.8,2.63,2.64,2.63,5.17v3.74c0,1.18.04,2.05.43,2.95h-4.04ZM619.65,439.06v7.46h1.55c1.48,0,2.38-.63,2.38-2.57v-2.39c0-1.74-.61-2.5-2.02-2.5h-1.91Z"/>
    <path class="st2" d="M637.43,435.59h3.97v24.29h-3.97v-24.29Z"/>
    <path class="st2" d="M651.21,441.42c0-3.89,2.13-6.11,6.02-6.11s6.03,2.22,6.03,6.11v12.63c0,3.88-2.13,6.1-6.03,6.1s-6.02-2.22-6.02-6.1v-12.63ZM655.17,454.29c0,1.73.79,2.39,2.06,2.39s2.06-.66,2.06-2.39v-13.11c0-1.74-.79-2.39-2.06-2.39s-2.06.66-2.06,2.39v13.11Z"/>
  </g>
</svg>