<?xml version="1.0" encoding="UTF-8"?>
<svg id="Capa_1" xmlns="http://www.w3.org/2000/svg" version="1.1" viewBox="0 0 841.89 595.28">
  <!-- Generator: Adobe Illustrator 29.5.1, SVG Export Plug-In . SVG Version: 2.1.0 Build 141)  -->
  <defs>
    <style>
      .st0 {
        fill: #102438;
      }

      .st1 {
        fill: #fff;
      }

      .st2 {
        fill: #0f2e46;
      }
    </style>
  </defs>
  <path class="st2" d="M596.46,231.46l1.06-11.58-9.29-7.01-.17-11.64-9.98-5.97-1.44-11.55-10.57-4.86-2.68-11.32-11.04-3.69-3.89-10.98-11.38-2.46-5.05-10.49-11.58-1.22-6.16-9.88-11.63.03-7.18-9.15-11.57,1.29-8.13-8.33-11.36,2.53-8.99-7.4-11.01,3.74-9.74-6.38-10.54,4.92-10.37-5.29-9.95,6.02-10.88-4.13-9.23,7.06-11.27-2.93-8.43,8.03-11.51-1.71-7.51,8.9-11.63-.45-6.5,9.65-11.61.81-5.42,10.29-11.46,2.07-4.28,10.82-11.17,3.29-3.07,11.22-10.75,4.48-1.85,11.49-10.19,5.61-.59,11.62-9.53,6.68.66,11.62-8.75,7.67,1.92,11.48-7.87,8.58,3.15,11.21-6.91,9.38,4.34,10.78-5.84,10.07,5.48,10.27-4.72,10.64,6.56,9.61-3.55,11.09,7.57,8.85-2.34,11.4,8.48,7.98-1.08,11.59,9.29,7.02.18,11.64,10,5.97,1.43,11.55,10.57,4.86,2.67,11.32,11.06,3.68,3.87,10.98,11.37,2.47,5.06,10.49,11.57,1.22,6.16,9.87,11.62-.03,7.21,9.15,11.56-1.3,8.14,8.33,11.34-2.53,9,7.4,11.02-3.75,9.74,6.38,10.54-4.92,10.35,5.29,9.98-6.03,10.86,4.15,9.25-7.07,11.25,2.94,8.43-8.03,11.52,1.7,7.51-8.89,11.62.46,6.51-9.65,11.61-.81,5.41-10.31,11.45-2.05,4.29-10.84,11.16-3.28,3.08-11.22,10.75-4.48,1.85-11.49,10.2-5.61.59-11.62,9.54-6.68-.68-11.61,8.75-7.67-1.91-11.48,7.87-8.57-3.15-11.2,6.9-9.38-4.33-10.8,5.85-10.07-5.49-10.27,4.72-10.63-6.56-9.62,3.55-11.08-7.55-8.85,2.33-11.4-8.46-7.98ZM496.55,460.16c-89.63,41.85-196.23,3.1-238.08-86.54-41.85-89.64-3.11-196.24,86.52-238.08,89.64-41.85,196.23-3.11,238.08,86.53,41.85,89.64,3.12,196.24-86.52,238.09Z"/>
  <path class="st2" d="M493.32,453.24c-85.69,40.01-187.94,2.84-227.95-82.85-40-85.68-2.84-187.94,82.85-227.95,85.69-40.01,187.96-2.85,227.96,82.84,40.01,85.69,2.84,187.95-82.86,227.96ZM350.89,148.17c-82.53,38.53-118.33,137.03-79.8,219.56,38.53,82.53,137.03,118.33,219.56,79.8,82.54-38.54,118.34-137.03,79.81-219.57-38.53-82.53-137.03-118.32-219.57-79.79Z"/>
  <path class="st2" d="M375.01,199.84c-54.12,25.27-77.5,89.63-52.23,143.75,25.27,54.12,89.63,77.52,143.74,52.26s77.52-89.64,52.25-143.76c-25.27-54.12-89.64-77.51-143.76-52.24Z"/>
  <g>
    <path class="st0" d="M273.1,295.47l.55-6.19,13.04-3.41-12.23-5.66.54-6.07,19.38,9.89-.46,5.13-20.83,6.31Z"/>
    <path class="st0" d="M276.35,268.01l4.09-15.58,4.56,1.2-2.7,10.26,2.93.77,2.44-9.3,4.23,1.11-2.44,9.29,3.07.81,2.74-10.4,4.56,1.2-4.13,15.72-19.37-5.09Z"/>
    <path class="st0" d="M282.82,245.6l3.85-8.65c1.25-2.8,2.84-4.41,4.64-5.07,1.52-.61,3.18-.53,4.98.28l.05.02c2.8,1.25,3.99,3.56,3.94,6.27l8.32-1.52-2.61,5.85-7.18,1.22-.99,2.22,5.54,2.47-2.26,5.07-18.29-8.15ZM295.35,241.1c.77-1.72.37-3.09-.96-3.68l-.05-.02c-1.44-.64-2.63.08-3.39,1.78l-1.48,3.32,4.39,1.96,1.49-3.35Z"/>
    <path class="st0" d="M293.51,223.67l2.9-4.77,17.11,10.4-2.9,4.77-17.11-10.4Z"/>
    <path class="st0" d="M300.25,212.83l9.89-12.62,3.83,3-6.46,8.25,2.68,2.1,5.85-7.46,3.63,2.84-5.84,7.46,5.63,4.42-3.43,4.37-15.77-12.36Z"/>
    <path class="st0" d="M314.56,195.74l3.94-3.95,14.17,14.15-3.94,3.95-14.17-14.15Z"/>
    <path class="st0" d="M323.72,186.75l12.68-9.94,2.91,3.72-8.36,6.55,1.87,2.39,7.57-5.93,2.7,3.45-7.57,5.93,1.96,2.5,8.47-6.64,2.91,3.72-12.8,10.03-12.36-15.77Z"/>
    <path class="st0" d="M342.48,172.75l6.8-3.68c6.29-3.41,11.91-1.76,14.66,3.33l.03.05c2.75,5.09,1.09,10.87-5.25,14.3l-6.7,3.62-9.54-17.62ZM356.55,182.32c2.92-1.58,3.99-4.24,2.45-7.09l-.03-.05c-1.53-2.82-4.35-3.41-7.27-1.83l-1.99,1.08,4.85,8.96,1.99-1.08Z"/>
    <path class="st0" d="M375.9,157.38l5.36-1.44,3.94,14.65,9.37-2.52,1.26,4.7-14.74,3.96-5.2-19.35Z"/>
    <path class="st0" d="M404.1,151.32l5.33-.51,10.41,19.27-5.93.56-1.79-3.42-7.69.73-1.08,3.7-5.81.55,6.57-20.89ZM410.11,163.08l-2.76-5.46-1.71,5.88,4.47-.43Z"/>
    <path class="st0" d="M420.89,149.73l5.83.62,2.24,11.89,5.08-11.17,4.75.51,2.6,11.99,4.7-11.15,5.72.61-8.8,19.35-4.81-.51-2.79-11.9-5.21,11.04-4.81-.51-4.52-20.77Z"/>
    <path class="st0" d="M459.74,168.84l-3.36-14.27,6.01,1.96,1.66,8.21,6.2-5.66,5.9,1.92-11.08,9.48-2.35,7.21-5.31-1.73,2.32-7.13Z"/>
    <path class="st0" d="M481.54,163.48l14.31,7.39-2.17,4.19-9.43-4.87-1.39,2.7,8.54,4.41-2.01,3.89-8.54-4.41-1.46,2.82,9.56,4.94-2.17,4.19-14.44-7.45,9.19-17.8Z"/>
    <path class="st0" d="M502.01,174.7l7.59,5.65c2.45,1.83,3.67,3.74,3.93,5.64.26,1.62-.19,3.22-1.36,4.8l-.03.05c-1.83,2.45-4.35,3.11-6.98,2.47l-.34,8.45-5.14-3.83.39-7.27-1.95-1.45-3.62,4.86-4.45-3.31,11.96-16.06ZM503.65,187.91c1.51,1.13,2.93,1.04,3.8-.13l.03-.05c.94-1.26.5-2.59-.99-3.7l-2.91-2.17-2.87,3.85,2.94,2.19Z"/>
  </g>
  <g>
    <path class="st0" d="M300.04,369.91h.03c3.3-1.68,7.18-.13,9,3.46,1.34,2.64,1.06,5.02-.12,6.89l-3.46-2.41c.56-.84.8-1.76.24-2.85-.69-1.35-2.23-1.7-3.55-1.03h-.03c-1.44.74-1.98,2.18-1.31,3.5.57,1.13,1.46,1.48,2.54,1.56l-.04,4.18c-2.15-.18-4.35-1.19-5.86-4.17-1.68-3.33-.85-7.39,2.58-9.12Z"/>
    <path class="st0" d="M312.41,380.22l6.42,9.51-2.81,1.9-3.95-5.85-1.04.7,3.68,5.45-2.47,1.67-3.68-5.45-1.11.75,4,5.93-2.81,1.9-6.47-9.59,10.24-6.92Z"/>
    <path class="st0" d="M320,391.26l4.34,4.94c1.57,1.79,2.17,3.29,2.14,4.57-.02,1.1-.43,2.02-1.39,2.86l-.03.02c-1.35,1.19-2.96,1.25-4.59.51l-1.08,5.13-3.39-3.85.98-4.24-.64-.72-2.65,2.33-2.97-3.38,9.28-8.17ZM319.83,399.98c.71.81,1.47,1.01,2.04.5l.03-.02c.6-.52.44-1.29-.24-2.07l-1.29-1.47-1.81,1.6,1.28,1.46Z"/>
    <path class="st0" d="M329.88,406.86l-2.96-2.63,2.32-2.62,9.28,8.24-2.32,2.62-2.96-2.63-5.89,6.63-3.36-2.99,5.89-6.63Z"/>
    <path class="st0" d="M340.07,410.85l3.62,2.67-7.34,9.97-3.62-2.67,7.34-9.97Z"/>
    <path class="st0" d="M345.55,414.93l9.6,5.88-1.85,3.01-5.76-3.53-.82,1.34,5.36,3.28-1.68,2.74-5.35-3.28-2.12,3.45-3.83-2.35,6.47-10.55Z"/>
    <path class="st0" d="M356.86,421.6l4.02,2.02-5.55,11.04-4.02-2.02,5.55-11.04Z"/>
    <path class="st0" d="M363,424.73l10.65,4.27-1.27,3.14-6.54-2.62-.47,1.16,6.1,2.45-1.11,2.77-6.1-2.44-.5,1.24,6.63,2.66-1.27,3.15-10.73-4.3,4.61-11.47Z"/>
    <path class="st0" d="M375.57,429.68l4.97,1.37c5.15,1.42,7.09,4.47,6.11,7.99v.03c-.98,3.53-4.31,5.3-9.56,3.86l-4.82-1.33,3.3-11.93ZM378.95,434.35l-1.37,4.98.72.2c1.99.55,3.47.15,3.95-1.57v-.03c.49-1.72-.59-2.82-2.57-3.37l-.72-.2Z"/>
    <path class="st0" d="M395.85,434.6l6.53.73c2.37.27,3.82.98,4.66,1.94.72.83,1.04,1.78.9,3.05v.03c-.2,1.79-1.36,2.92-3.06,3.46l2.64,4.52-5.1-.57-2.13-3.79-.96-.11-.39,3.51-4.47-.5,1.38-12.28ZM401.59,441.15c1.07.12,1.77-.25,1.85-1v-.03c.09-.79-.53-1.25-1.56-1.37l-1.95-.22-.27,2.4,1.93.21Z"/>
    <path class="st0" d="M410.26,436.07l11.47.1-.02,3.39-7.05-.06v1.25s6.56.06,6.56.06l-.02,2.98-6.57-.06v1.34s7.14.06,7.14.06l-.02,3.39-11.56-.1.09-12.36Z"/>
    <path class="st0" d="M428.36,435.56l4.44-.44,6.87,11.83-4.86.49-.87-1.58-4.69.47-.52,1.72-4.78.48,4.41-12.97ZM432.55,443.04l-1.52-2.87-.92,3.11,2.45-.25Z"/>
    <path class="st0" d="M439.68,434.31l4.41-.9,1.77,8.65,6.19-1.27.71,3.46-10.59,2.17-2.47-12.12Z"/>
    <path class="st0" d="M457.63,430.11l10.82-3.78,1.12,3.2-6.65,2.32.41,1.18,6.2-2.17.99,2.82-6.2,2.17.44,1.27,6.74-2.36,1.12,3.2-10.91,3.81-4.08-11.66Z"/>
    <path class="st0" d="M473.68,435.53l1.11-3.39c1.75.34,3.45.04,4.89-.61.74-.33.97-.65.83-.96v-.03c-.16-.32-.62-.33-2.05.02-2.98.72-5.73,1.08-6.8-1.3l-.02-.03c-.96-2.15.12-4.63,3.5-6.15,2.37-1.06,4.35-1.34,6.23-.94l-.85,3.45c-1.51-.25-3.04.03-4.18.54-.61.28-.81.6-.68.87l.02.03c.14.31.56.35,1.96,0,3.38-.88,5.86-.99,6.88,1.29v.03c1.08,2.37-.39,4.78-3.69,6.26-2.49,1.12-5.02,1.48-7.15.93Z"/>
    <path class="st0" d="M486.88,421.41l-3.43,1.96-1.73-3.04,10.77-6.16,1.73,3.04-3.43,1.96,4.39,7.7-3.9,2.23-4.39-7.7Z"/>
    <path class="st0" d="M496.32,411.43l3.65-2.55,11.78,6.97-4,2.8-1.53-.96-3.85,2.7.39,1.76-3.93,2.75-2.49-13.46ZM503.62,415.92l-2.73-1.76.71,3.17,2.01-1.41Z"/>
    <path class="st0" d="M509.19,406.3l-3.01,2.56-2.26-2.66,9.45-8.04,2.26,2.66-3.02,2.56,5.74,6.75-3.43,2.91-5.73-6.75Z"/>
    <path class="st0" d="M514.6,396.95l7.97-8.24,2.44,2.36-4.9,5.07.9.87,4.57-4.72,2.15,2.08-4.57,4.72.97.93,4.97-5.14,2.44,2.36-8.05,8.31-8.9-8.61Z"/>
    <path class="st0" d="M527.67,382.61l2.65-3.64,7.13,5.22,3.73-5.11,2.85,2.09-6.37,8.74-9.98-7.3Z"/>
    <path class="st0" d="M537.27,368.4l2.22-3.86,13.62,1.32-2.43,4.22-1.79-.22-2.35,4.07,1.09,1.43-2.4,4.16-7.97-11.13ZM545.78,369.37l-3.22-.44,1.99,2.57,1.23-2.13Z"/>
    <path class="st0" d="M541.98,360.99l1.79-4.36,6.22.49-4.7-4.27,1.48-3.59,6.35.25-4.77-4.01,1.76-4.28,9.85,8.79-1.49,3.63-6.58-.14,4.79,4.52-1.49,3.63-13.19-.65Z"/>
    <path class="st0" d="M551.74,334.2l2.29-11.24,3.33.67-1.41,6.91,1.23.25,1.31-6.44,2.93.59-1.31,6.44,1.32.27,1.42-7.01,3.33.67-2.3,11.34-12.13-2.46Z"/>
    <path class="st0" d="M555.39,307.84l5.65,4.83,6.7-4.02-.42,5.09-3.38,1.87,3.03,2.4-.41,5-5.9-5.04-6.42,3.85.42-5.09,3.1-1.7-2.78-2.19.41-4.99Z"/>
    <path class="st0" d="M555.33,306.4l-.27-6.05c-.16-3.57,1.2-6.07,4.13-6.2h.04c2.99-.13,4.68,2.28,4.84,5.91l.06,1.46,3.36-.15.2,4.49-12.36.54ZM561.14,300.44c-.05-1.15-.56-1.9-1.45-1.86h-.04c-.9.04-1.33.77-1.28,1.96l.05,1.23,2.76-.12-.05-1.21Z"/>
    <path class="st0" d="M554.61,292.76l-1.88-11.31,3.35-.56,1.16,6.95,1.24-.21-1.08-6.48,2.95-.49,1.07,6.48,1.32-.22-1.17-7.04,3.35-.56,1.89,11.4-12.2,2.04Z"/>
    <path class="st0" d="M552.31,279.56l-1.88-6.29c-.68-2.28-.59-3.89-.03-5.04.48-.98,1.24-1.65,2.46-2.02h.03c1.73-.53,3.22.09,4.38,1.45l3.14-4.2,1.46,4.91-2.66,3.44.27.92,3.39-1.01,1.28,4.31-11.86,3.54ZM556.11,271.72c-.31-1.03-.92-1.53-1.64-1.31h-.04c-.76.24-.94.99-.65,1.99l.56,1.88,2.32-.69-.55-1.86Z"/>
    <path class="st0" d="M549.85,261.33l1.6,3.62-3.2,1.42-5.03-11.36,3.2-1.42,1.6,3.62,8.11-3.6,1.82,4.11-8.11,3.6Z"/>
  </g>
  <path class="st2" d="M295.97,329.01c2.11,4.25.37,9.41-3.88,11.51s-9.41.37-11.51-3.88c-2.11-4.25-.37-9.41,3.88-11.51,4.25-2.11,9.41-.37,11.51,3.88Z"/>
  <path class="st2" d="M540.32,217.63c2.11,4.25.37,9.41-3.88,11.51s-9.41.37-11.51-3.88-.37-9.41,3.88-11.51c4.25-2.11,9.41-.37,11.51,3.88Z"/>
  <g>
    <g>
      <path class="st1" d="M358.5,299.24l6.28-2.93,35.1,30.91-7.16,3.34-8.26-7.48-18.23,8.51.38,11.16-6.94,3.24-1.17-46.75ZM379.18,318.24l-13.87-12.31.59,18.51,13.28-6.2Z"/>
      <path class="st1" d="M394.59,282.4l6.28-2.93,35.1,30.91-7.16,3.34-8.26-7.48-18.23,8.51.38,11.16-6.94,3.24-1.17-46.75ZM415.26,301.39l-13.87-12.31.59,18.51,13.28-6.2Z"/>
      <path class="st1" d="M417.91,271.85l28.59-13.35,2.83,6.06-21.81,10.18,4.68,10.02,19.33-9.03,2.83,6.06-19.33,9.03,4.83,10.35,22.09-10.31,2.83,6.06-28.86,13.48-18-38.56Z"/>
      <path class="st1" d="M448.15,257.73l14.38-6.71c12.12-5.66,24.37-1.25,29.44,9.6l.05.11c5.07,10.85.63,23.19-11.49,28.85l-14.38,6.71-18-38.56ZM477.65,283.4c8.1-3.78,10.84-11.7,7.32-19.25l-.05-.11c-3.52-7.55-11.41-10.64-19.5-6.86l-7.6,3.55,12.24,26.22,7.6-3.55Z"/>
      <path class="st1" d="M484.95,240.55l6.77-3.16,18,38.56-6.77,3.16-18-38.56Z"/>
    </g>
    <rect class="st1" x="339.32" y="298.69" width="4.07" height="4.07" transform="translate(-95.17 172.64) rotate(-25.03)"/>
    <rect class="st1" x="375.15" y="281.96" width="4.07" height="4.07" transform="translate(-84.73 186.23) rotate(-25.03)"/>
    <rect class="st1" x="335.41" y="285.69" width="43.51" height="4.07" transform="translate(-88.19 178.11) rotate(-25.03)"/>
    <polygon class="st1" points="330.26 309.55 356.09 332.3 355.24 297.89 330.26 309.55"/>
    <polygon class="st1" points="366.12 292.81 391.95 315.56 391.1 281.15 366.12 292.81"/>
    <polygon class="st1" points="375.3 275.49 348.44 268.85 336.28 293.71 375.3 275.49"/>
    <g>
      <path class="st1" d="M366.66,355.21l-1.08.5-.74-1.1-1.31.61.37,1.27-.98.46-1.96-7.04,1.56-.73,4.14,6.02ZM363.26,354.28l1.03-.48-2.06-3.06,1.03,3.54Z"/>
      <path class="st1" d="M367.46,346.8c1.04-.49,1.85-.14,2.34.91l.1.2-1.01.47-.13-.27c-.22-.47-.49-.55-.83-.39s-.45.43-.23.89c.63,1.34,2.83.62,3.7,2.49.49,1.04.22,1.89-.83,2.38s-1.87.15-2.36-.9l-.19-.4,1.01-.47.22.47c.22.47.51.53.85.38s.47-.43.26-.89c-.63-1.34-2.83-.62-3.7-2.49-.49-1.05-.23-1.89.8-2.38Z"/>
      <path class="st1" d="M372.28,346.55c-.49-1.05-.19-1.91.85-2.4s1.9-.16,2.39.89l1.59,3.39c.49,1.04.19,1.91-.85,2.4s-1.9.16-2.39-.88l-1.59-3.39ZM374.96,349.51c.22.47.51.54.85.38s.47-.44.25-.9l-1.65-3.53c-.22-.47-.51-.54-.86-.38s-.47.44-.25.9l1.65,3.53Z"/>
      <path class="st1" d="M382.43,344.88l.41.87c.49,1.04.22,1.89-.83,2.38s-1.87.15-2.36-.9l-1.59-3.39c-.49-1.05-.22-1.9.82-2.38s1.87-.15,2.36.9l.3.63-1.01.47-.33-.7c-.22-.47-.51-.54-.86-.38s-.47.44-.25.9l1.65,3.53c.22.47.51.53.85.38s.48-.43.26-.89l-.44-.93,1.01-.47Z"/>
      <path class="st1" d="M383.12,339.58l1.07-.5,3.05,6.53-1.07.5-3.05-6.53Z"/>
      <path class="st1" d="M393.41,342.72l-1.08.5-.74-1.1-1.31.61.37,1.27-.98.46-1.96-7.04,1.56-.73,4.14,6.02ZM390.01,341.79l1.03-.48-2.06-3.06,1.03,3.54Z"/>
      <path class="st1" d="M397.81,337.7l.41.87c.49,1.04.22,1.89-.83,2.38s-1.87.15-2.36-.9l-1.59-3.39c-.49-1.05-.22-1.9.82-2.38s1.87-.15,2.36.9l.3.63-1.01.47-.33-.7c-.22-.47-.51-.54-.86-.38s-.47.44-.25.9l1.65,3.53c.22.47.51.53.85.38s.48-.43.26-.89l-.44-.93,1.01-.47Z"/>
      <path class="st1" d="M398.5,332.39l1.07-.5,3.05,6.53-1.07.5-3.05-6.53Z"/>
      <path class="st1" d="M402.93,332.23c-.49-1.05-.19-1.91.85-2.4s1.9-.16,2.39.89l1.59,3.39c.49,1.04.19,1.91-.85,2.4s-1.9.16-2.39-.88l-1.59-3.39ZM404.32,328l-.51,1.5-.72.34.18-1.34,1.05-.49ZM405.61,335.2c.22.47.51.54.85.38s.47-.44.25-.9l-1.65-3.53c-.22-.47-.51-.54-.86-.38s-.47.44-.25.9l1.65,3.53Z"/>
      <path class="st1" d="M409.87,329.28l2.21,4.73-.96.45-3.05-6.53,1.34-.63,2.92,3.4-1.82-3.91.95-.44,3.05,6.53-1.1.51-3.54-4.11Z"/>
      <path class="st1" d="M424.12,328.38l-1.08.5-.74-1.1-1.31.61.37,1.27-.98.46-1.96-7.04,1.56-.73,4.14,6.02ZM420.72,327.45l1.03-.48-2.06-3.06,1.03,3.54Z"/>
      <path class="st1" d="M427.41,320.73l.11.23c.31.67.3,1.2-.08,1.64.67-.05,1.13.34,1.45,1.03l.25.53c.47,1.01.17,1.81-.9,2.3l-1.68.78-3.05-6.53,1.61-.75c1.11-.52,1.81-.24,2.28.76ZM425.02,321.15l.81,1.73.42-.19c.4-.19.56-.47.32-.99l-.17-.36c-.22-.47-.48-.59-.86-.42l-.51.24ZM426.26,323.81l.94,2,.61-.29c.36-.17.48-.42.25-.9l-.27-.57c-.28-.61-.57-.7-1.06-.47l-.48.22Z"/>
      <path class="st1" d="M430.05,319.57c-.49-1.05-.19-1.91.85-2.4s1.9-.16,2.39.89l1.59,3.39c.49,1.04.19,1.91-.85,2.4s-1.9.16-2.39-.88l-1.59-3.39ZM432.73,322.54c.22.47.51.54.85.38s.47-.44.25-.9l-1.65-3.53c-.22-.47-.51-.54-.86-.38s-.47.44-.25.9l1.65,3.53Z"/>
      <path class="st1" d="M438.14,317.41l1.5-.7.97,2.07c.49,1.04.22,1.89-.83,2.38s-1.87.15-2.36-.9l-1.59-3.39c-.49-1.05-.22-1.9.82-2.38s1.87-.15,2.36.9l.3.63-1.01.47-.33-.7c-.22-.47-.51-.54-.86-.38s-.47.44-.25.9l1.65,3.53c.22.47.51.53.85.38s.48-.43.26-.89l-.56-1.2-.49.23-.43-.93Z"/>
      <path class="st1" d="M447.42,317.51l-1.08.5-.74-1.1-1.31.61.37,1.27-.98.46-1.96-7.04,1.56-.73,4.14,6.02ZM444.02,316.57l1.03-.48-2.06-3.06,1.03,3.54Z"/>
      <path class="st1" d="M446.81,309.84l1.69-.79c1.07-.5,1.86-.17,2.35.87l1.54,3.3c.49,1.04.23,1.86-.84,2.36l-1.69.79-3.05-6.53ZM448.31,310.27l2.18,4.66.6-.28c.34-.16.47-.42.25-.89l-1.59-3.39c-.22-.47-.5-.54-.84-.38l-.6.28Z"/>
      <path class="st1" d="M453.36,308.69c-.49-1.05-.19-1.91.85-2.4s1.9-.16,2.39.89l1.59,3.39c.49,1.04.19,1.91-.85,2.4s-1.9.16-2.39-.88l-1.59-3.39ZM456.05,311.65c.22.47.51.54.85.38s.47-.44.25-.9l-1.65-3.53c-.22-.47-.51-.54-.86-.38s-.47.44-.25.9l1.65,3.53Z"/>
      <path class="st1" d="M459.91,303.63c1.04-.49,1.85-.14,2.34.91l.1.2-1.01.47-.13-.27c-.22-.47-.49-.55-.83-.39s-.45.43-.23.89c.63,1.34,2.83.62,3.7,2.49.49,1.04.22,1.89-.83,2.38s-1.87.15-2.36-.9l-.19-.4,1.01-.47.22.47c.22.47.51.53.85.38s.47-.43.26-.89c-.63-1.34-2.83-.62-3.7-2.49-.49-1.05-.23-1.89.8-2.38Z"/>
      <path class="st1" d="M469.89,302.41l1.46-.68.44.93-1.46.68.89,1.91,1.84-.86.44.93-2.91,1.36-3.05-6.53,2.91-1.36.44.93-1.84.86.85,1.82Z"/>
      <path class="st1" d="M476.62,295.92l.37,3.69,2.76,2.8-1.13.53-2.08-2.18.32,3-1,.47-.37-3.91-2.6-2.65,1.11-.52,1.93,2.03-.3-2.79.99-.46Z"/>
      <path class="st1" d="M483.09,294.86l.4.85c.49,1.04.23,1.86-.84,2.36l-.5.24,1.15,2.45-1.07.5-3.05-6.53,1.57-.73c1.07-.5,1.86-.17,2.35.87ZM480.68,295.16l1.03,2.21.5-.24c.34-.16.45-.39.24-.86l-.46-.98c-.22-.47-.47-.53-.81-.37l-.5.24Z"/>
      <path class="st1" d="M487.18,294.34l1.46-.68.44.93-1.46.68.89,1.91,1.84-.86.44.93-2.91,1.36-3.05-6.53,2.91-1.36.44.93-1.84.86.85,1.82Z"/>
      <path class="st1" d="M495.63,295c-.14-.14-.22-.23-.47-.76l-.48-1.03c-.28-.61-.6-.73-1.09-.5l-.37.17,1.24,2.66-1.07.5-3.05-6.53,1.61-.75c1.11-.52,1.81-.24,2.28.76l.24.51c.31.67.3,1.21-.08,1.65.63-.03,1.04.38,1.36,1.06l.47,1.01c.15.32.27.55.49.74l-1.09.51ZM491.85,289.94l.94,2.01.42-.19c.4-.19.56-.47.32-.99l-.3-.64c-.22-.47-.48-.59-.86-.42l-.51.24Z"/>
      <path class="st1" d="M495.88,286.93l3.3-1.54.44.93-1.11.52,2.61,5.6-1.07.5-2.61-5.6-1.12.52-.44-.93Z"/>
      <path class="st1" d="M502.24,285.87c-.49-1.05-.19-1.91.85-2.4s1.9-.16,2.39.89l1.59,3.39c.49,1.04.19,1.91-.85,2.4s-1.9.16-2.39-.88l-1.59-3.39ZM504.93,288.83c.22.47.51.54.85.38s.47-.44.25-.9l-1.65-3.53c-.22-.47-.51-.54-.86-.38s-.47.44-.25.9l1.65,3.53Z"/>
      <path class="st1" d="M508.79,280.81c1.04-.49,1.85-.14,2.34.91l.1.2-1.01.47-.13-.27c-.22-.47-.49-.55-.83-.39s-.45.43-.23.89c.63,1.34,2.83.62,3.7,2.49.49,1.04.22,1.89-.83,2.38s-1.87.15-2.36-.9l-.19-.4,1.01-.47.22.47c.22.47.51.53.85.38s.47-.43.26-.89c-.63-1.34-2.83-.62-3.7-2.49-.49-1.05-.23-1.89.8-2.38Z"/>
      <path class="st1" d="M384.1,353.8l1.46-.68.44.93-1.46.68.89,1.91,1.84-.86.44.93-2.91,1.36-3.05-6.53,2.91-1.36.44.93-1.84.86.85,1.82Z"/>
      <path class="st1" d="M389.06,350.33l2.21,4.73-.96.45-3.05-6.53,1.34-.63,2.92,3.4-1.82-3.91.95-.44,3.05,6.53-1.1.51-3.54-4.11Z"/>
      <path class="st1" d="M396.8,344.52l1.69-.79c1.07-.5,1.86-.17,2.35.87l1.54,3.3c.49,1.04.23,1.86-.84,2.36l-1.69.79-3.05-6.53ZM398.31,344.96l2.18,4.66.6-.28c.34-.16.47-.42.25-.89l-1.59-3.39c-.22-.47-.5-.54-.84-.38l-.6.28Z"/>
      <path class="st1" d="M405.06,344.02l1.46-.68.44.93-1.46.68.89,1.91,1.84-.86.44.93-2.91,1.36-3.05-6.53,2.91-1.36.44.93-1.84.86.85,1.82Z"/>
      <path class="st1" d="M413.51,344.67c-.14-.14-.22-.23-.47-.76l-.48-1.03c-.28-.61-.6-.73-1.09-.5l-.37.17,1.24,2.66-1.07.5-3.05-6.53,1.61-.75c1.11-.52,1.81-.24,2.28.76l.24.51c.31.67.3,1.21-.08,1.65.63-.03,1.04.38,1.36,1.06l.47,1.01c.15.32.27.55.49.74l-1.09.51ZM409.73,339.62l.94,2.01.42-.19c.4-.19.56-.47.32-.99l-.3-.64c-.22-.47-.48-.59-.86-.42l-.51.24Z"/>
      <path class="st1" d="M416.43,338.71l1.46-.68.44.93-1.46.68.89,1.91,1.84-.86.44.93-2.91,1.36-3.05-6.53,2.91-1.36.44.93-1.84.86.85,1.82Z"/>
      <path class="st1" d="M424.61,336.53l.41.87c.49,1.04.22,1.89-.83,2.38s-1.87.15-2.36-.9l-1.59-3.39c-.49-1.05-.22-1.9.82-2.38s1.87-.15,2.36.9l.3.63-1.01.47-.33-.7c-.22-.47-.51-.54-.86-.38s-.47.44-.25.9l1.65,3.53c.22.47.51.53.85.38s.48-.43.26-.89l-.44-.93,1.01-.47Z"/>
      <path class="st1" d="M429.41,337.25l-1.07.5-3.05-6.53,1.07-.5,1.31,2.8,1.21-.57-1.31-2.8,1.09-.51,3.05,6.53-1.09.51-1.31-2.8-1.21.57,1.31,2.8Z"/>
      <path class="st1" d="M432.03,329.99c-.49-1.05-.19-1.91.85-2.4s1.9-.16,2.39.89l1.59,3.39c.49,1.04.19,1.91-.85,2.4s-1.9.16-2.39-.88l-1.59-3.39ZM434.71,332.95c.22.47.51.54.85.38s.47-.44.25-.9l-1.65-3.53c-.22-.47-.51-.54-.86-.38s-.47.44-.25.9l1.65,3.53Z"/>
      <path class="st1" d="M440.62,324.06l1.07-.5,3.05,6.53-1.07.5-3.05-6.53Z"/>
      <path class="st1" d="M446.2,323.65l2.21,4.73-.96.45-3.05-6.53,1.34-.63,2.92,3.4-1.82-3.91.95-.44,3.05,6.53-1.1.51-3.54-4.11Z"/>
      <path class="st1" d="M454.93,323.03l-1.44-4.98,1.49-.69,3.05,6.53-1.01.47-2.19-4.68,1.45,5.03-1.01.47-2.95-4.25,2.16,4.62-.93.43-3.05-6.53,1.48-.69,2.95,4.27Z"/>
      <path class="st1" d="M458.35,317.7c-.49-1.05-.19-1.91.85-2.4s1.9-.16,2.39.89l1.59,3.39c.49,1.04.19,1.91-.85,2.4s-1.9.16-2.39-.88l-1.59-3.39ZM461.03,320.66c.22.47.51.54.85.38s.47-.44.25-.9l-1.65-3.53c-.22-.47-.51-.54-.86-.38s-.47.44-.25.9l1.65,3.53Z"/>
      <path class="st1" d="M467.39,313.4l.11.23c.31.67.3,1.2-.08,1.64.67-.05,1.13.34,1.45,1.03l.25.53c.47,1.01.17,1.81-.9,2.3l-1.68.78-3.05-6.53,1.61-.75c1.11-.52,1.81-.24,2.28.76ZM464.99,313.82l.81,1.73.42-.19c.4-.19.56-.47.32-.99l-.17-.36c-.22-.47-.48-.59-.86-.42l-.51.24ZM466.24,316.48l.94,2,.61-.29c.36-.17.48-.42.25-.9l-.27-.57c-.28-.61-.57-.7-1.06-.47l-.48.22Z"/>
      <path class="st1" d="M469.38,310.64l1.07-.5,3.05,6.53-1.07.5-3.05-6.53Z"/>
      <path class="st1" d="M473.17,308.87l1.07-.5,2.61,5.6,1.76-.82.44.93-2.82,1.32-3.05-6.53Z"/>
      <path class="st1" d="M478.41,306.42l1.07-.5,3.05,6.53-1.07.5-3.05-6.53Z"/>
      <path class="st1" d="M488.7,309.57l-1.08.5-.74-1.1-1.31.61.37,1.27-.98.46-1.96-7.04,1.56-.73,4.14,6.02ZM485.29,308.64l1.03-.48-2.06-3.06,1.03,3.54Z"/>
      <path class="st1" d="M493.37,307.39c-.14-.14-.22-.23-.47-.76l-.48-1.03c-.28-.61-.6-.73-1.09-.5l-.37.17,1.24,2.66-1.07.5-3.05-6.53,1.61-.75c1.11-.52,1.81-.24,2.28.76l.24.51c.31.67.3,1.21-.08,1.65.63-.03,1.04.38,1.36,1.06l.47,1.01c.15.32.27.55.49.74l-1.09.51ZM489.6,302.33l.94,2.01.42-.19c.4-.19.56-.47.32-.99l-.3-.64c-.22-.47-.48-.59-.86-.42l-.51.24Z"/>
      <path class="st1" d="M493.94,299.17l1.07-.5,3.05,6.53-1.07.5-3.05-6.53Z"/>
      <path class="st1" d="M498.37,299.01c-.49-1.05-.19-1.91.85-2.4s1.9-.16,2.39.89l1.59,3.39c.49,1.04.19,1.91-.85,2.4s-1.9.16-2.39-.88l-1.59-3.39ZM501.06,301.97c.22.47.51.54.85.38s.47-.44.25-.9l-1.65-3.53c-.22-.47-.51-.54-.86-.38s-.47.44-.25.9l1.65,3.53Z"/>
    </g>
  </g>
</svg>